<svg width="24" height="24" viewBox="0 0 24 24" fill="none" xmlns="http://www.w3.org/2000/svg">
<g filter="url(#filter0_d_1287_4117)">
<path d="M15.7422 10.3439C16.5329 9.2673 17 7.9382 17 6.5C17 2.91015 14.0899 0 10.5 0C6.91015 0 4 2.91015 4 6.5C4 10.0899 6.91015 13 10.5 13C11.9386 13 13.268 12.5327 14.3448 11.7415L14.3439 11.7422C14.3734 11.7822 14.4062 11.8204 14.4424 11.8566L18.2929 15.7071C18.6834 16.0976 19.3166 16.0976 19.7071 15.7071C20.0976 15.3166 20.0976 14.6834 19.7071 14.2929L15.8566 10.4424C15.8204 10.4062 15.7822 10.3734 15.7422 10.3439ZM16 6.5C16 9.53757 13.5376 12 10.5 12C7.46243 12 5 9.53757 5 6.5C5 3.46243 7.46243 1 10.5 1C13.5376 1 16 3.46243 16 6.5Z" fill="black"/>
</g>
<defs>
<filter id="filter0_d_1287_4117" x="0" y="0" width="24" height="24" filterUnits="userSpaceOnUse" color-interpolation-filters="sRGB">
<feFlood flood-opacity="0" result="BackgroundImageFix"/>
<feColorMatrix in="SourceAlpha" type="matrix" values="0 0 0 0 0 0 0 0 0 0 0 0 0 0 0 0 0 0 127 0" result="hardAlpha"/>
<feOffset dy="4"/>
<feGaussianBlur stdDeviation="2"/>
<feComposite in2="hardAlpha" operator="out"/>
<feColorMatrix type="matrix" values="0 0 0 0 0 0 0 0 0 0 0 0 0 0 0 0 0 0 0.25 0"/>
<feBlend mode="normal" in2="BackgroundImageFix" result="effect1_dropShadow_1287_4117"/>
<feBlend mode="normal" in="SourceGraphic" in2="effect1_dropShadow_1287_4117" result="shape"/>
</filter>
</defs>
</svg>
